<?xml version="1.0" standalone="no"?>
<!DOCTYPE svg PUBLIC "-//W3C//DTD SVG 20010904//EN"
 "http://www.w3.org/TR/2001/REC-SVG-20010904/DTD/svg10.dtd">
<svg version="1.0" xmlns="http://www.w3.org/2000/svg"
 width="4375.000000pt" height="2188.000000pt" viewBox="0 0 4375.000000 2188.000000"
 preserveAspectRatio="xMidYMid meet">

<g transform="translate(0.000000,2188.000000) scale(0.100000,-0.100000)"
fill="#000000" stroke="none">
<path d="M20 21760 c0 -55 2 -100 5 -100 5 0 295 187 304 195 2 3 -66 5 -152
5 l-157 0 0 -100z"/>
<path d="M2973 20347 l-460 -561 15 -38 c9 -21 21 -37 27 -34 6 2 279 86 606
186 773 236 879 269 879 277 0 8 -128 499 -141 540 -8 24 -19 35 -52 46 -23 8
-126 44 -228 80 l-186 65 -460 -561z"/>
<path d="M4608 20431 l-446 -336 246 -247 c136 -137 250 -248 255 -248 18 0
103 91 114 122 16 43 284 1041 280 1044 -1 1 -203 -150 -449 -335z"/>
<path d="M428 20137 l-408 -181 0 -288 c0 -158 4 -288 8 -288 17 0 927 448
927 456 0 36 -102 484 -110 483 -5 -1 -193 -83 -417 -182z"/>
<path d="M4023 19623 c-105 -192 -190 -349 -189 -350 1 -1 175 40 386 91 l384
92 17 50 17 49 -206 208 c-114 114 -209 207 -212 207 -4 0 -92 -156 -197 -347z"/>
<path d="M4728 19603 c-40 -41 -61 -73 -73 -110 l-17 -53 157 -407 c87 -225
163 -418 169 -429 10 -20 44 24 372 475 199 273 361 497 359 499 -3 4 -852 81
-890 82 -12 0 -44 -24 -77 -57z"/>
<path d="M10660 19239 c-119 -84 -120 -89 -5 -23 118 67 111 62 99 73 -5 6
-43 -15 -94 -50z"/>
<path d="M6068 18727 c-306 -232 -562 -427 -567 -432 -7 -7 35 -39 131 -99
l142 -88 40 43 c22 24 221 237 441 473 220 236 401 434 402 440 2 6 -5 27 -15
48 l-17 36 -557 -421z"/>
<path d="M4837 18730 c-8 -19 -42 -95 -76 -168 -34 -73 -61 -135 -61 -138 0
-2 65 -4 144 -4 l144 0 -59 153 c-33 83 -63 161 -68 172 -8 18 -10 17 -24 -15z"/>
<path d="M30393 17970 c-139 -170 -249 -310 -245 -310 4 0 181 92 394 204
l387 203 -130 102 c-72 56 -136 104 -142 107 -7 2 -125 -135 -264 -306z"/>
<path d="M5198 18188 c-8 -7 -18 -22 -22 -33 -6 -16 -1 -14 26 10 18 17 35 31
37 33 2 1 -2 2 -10 2 -9 0 -22 -6 -31 -12z"/>
<path d="M31121 17092 c-30 -42 -79 -113 -109 -156 l-56 -79 78 5 c72 5 80 8
112 40 l35 34 -3 116 -3 117 -54 -77z"/>
<path d="M1745 16910 c-85 -86 -136 -143 -130 -148 6 -5 120 -71 255 -147 135
-76 248 -139 252 -141 5 -3 369 507 402 564 6 9 -60 12 -316 12 l-323 0 -140
-140z"/>
<path d="M31180 16875 l-33 -34 78 -383 c43 -211 82 -392 86 -403 5 -16 41
-31 163 -70 l156 -48 103 99 c56 55 180 175 276 267 98 95 170 172 165 176 -5
5 -110 104 -232 220 l-224 211 -252 0 -252 0 -34 -35z"/>
<path d="M7837 16431 l-426 -469 107 -105 c59 -57 128 -123 153 -145 l46 -42
249 368 c137 201 306 451 376 554 l126 187 -96 57 c-54 31 -100 58 -103 60 -3
2 -198 -208 -432 -465z"/>
<path d="M5211 16059 c-254 -342 -460 -624 -457 -627 11 -11 549 -113 556
-105 4 4 123 235 265 513 142 278 275 538 296 577 l38 73 -102 82 c-56 45
-109 87 -118 95 -14 11 -72 -62 -478 -608z"/>
<path d="M6080 16494 c-63 -8 -120 -16 -126 -18 -12 -4 -607 -1163 -607 -1181
0 -8 184 -326 199 -344 3 -4 985 845 997 862 5 7 -32 150 -86 337 l-94 325
-39 17 c-45 20 -87 21 -244 2z"/>
<path d="M32118 15796 c-48 -11 -89 -23 -92 -26 -2 -3 -66 -129 -141 -280
l-137 -275 79 76 c43 41 170 163 283 270 113 107 206 196 208 199 2 5 -105 62
-111 59 -1 -1 -41 -11 -89 -23z"/>
<path d="M32120 15155 l-472 -472 36 -23 c22 -13 44 -19 54 -15 9 3 137 63
285 133 l267 126 84 135 c46 75 140 227 209 337 l125 202 -58 25 -58 24 -472
-472z"/>
<path d="M13500 15009 l-585 -207 -172 -112 c-152 -98 -173 -115 -173 -139 0
-14 18 -242 42 -507 l42 -481 40 -46 c26 -29 51 -47 68 -49 22 -3 107 68 542
449 458 401 534 472 671 625 144 162 154 176 154 213 1 48 -36 455 -41 459 -1
2 -266 -90 -588 -205z"/>
<path d="M8550 14851 c-47 -21 -178 -77 -293 -126 l-207 -88 201 -109 c111
-60 204 -107 206 -104 7 6 193 449 193 458 0 12 -7 10 -100 -31z"/>
<path d="M9830 14791 c-45 -33 -914 -657 -1067 -765 -1 0 19 -91 45 -202 l46
-201 68 -18 c38 -10 70 -16 72 -14 80 106 916 1241 916 1244 0 12 -20 1 -80
-44z"/>
<path d="M5557 14662 c-31 -75 -121 -298 -200 -494 l-145 -358 593 -481 c327
-264 597 -481 601 -482 4 -1 126 408 271 908 294 1017 277 929 179 940 -28 3
-303 25 -611 50 -308 25 -576 47 -596 50 l-37 5 -55 -138z"/>
<path d="M28679 14403 c-105 -159 -185 -281 -176 -273 25 25 447 549 447 555
0 3 -18 5 -40 5 l-40 0 -191 -287z"/>
<path d="M34996 14265 c-253 -118 -462 -217 -464 -220 -9 -9 242 -775 254
-775 8 0 415 387 781 743 l22 22 -48 180 c-27 99 -54 199 -60 223 -7 23 -15
42 -19 42 -4 0 -214 -97 -466 -215z"/>
<path d="M29879 14203 c-53 -160 -69 -220 -62 -232 6 -9 15 -16 20 -16 6 0
120 97 254 215 134 118 252 223 264 232 19 16 10 17 -192 18 l-211 0 -73 -217z"/>
<path d="M7859 13592 l-616 -747 56 -6 c31 -4 138 -7 239 -8 l182 -1 448 224
448 224 97 162 c53 89 97 170 97 180 0 10 -20 105 -44 210 -35 150 -50 199
-72 228 -48 65 -197 257 -208 269 -9 10 -156 -163 -627 -735z"/>
<path d="M24151 14167 l-94 -42 54 -12 c30 -7 70 -15 90 -18 l36 -6 10 60 c5
34 7 61 4 60 -3 0 -48 -19 -100 -42z"/>
<path d="M3962 13548 c-286 -255 -519 -464 -518 -466 3 -2 593 187 962 309
l121 40 111 124 112 123 -131 164 c-72 90 -133 164 -134 166 -1 1 -236 -206
-523 -460z"/>
<path d="M10025 13744 c-390 -140 -713 -258 -717 -262 -4 -4 260 -218 587
-475 l595 -467 164 121 164 122 195 416 c108 229 197 421 199 428 4 14 -441
373 -462 372 -8 0 -334 -115 -725 -255z"/>
<path d="M32727 13664 c-189 -95 -208 -107 -205 -128 2 -15 124 -155 317 -364
l313 -340 197 95 c206 100 281 141 281 151 -1 4 -20 87 -44 186 -36 151 -46
181 -67 196 -48 34 -557 310 -570 309 -8 0 -108 -47 -222 -105z"/>
<path d="M15659 13324 l-334 -334 275 -275 c215 -216 279 -275 295 -271 18 5
895 420 1003 475 l43 22 -48 37 c-74 59 -877 668 -889 675 -5 3 -161 -145
-345 -329z"/>
<path d="M8745 13420 l-97 -161 125 -575 c69 -316 126 -576 128 -578 33 -24
1029 -636 1035 -636 5 0 68 60 141 133 l131 132 131 326 c118 293 131 332 131
386 l0 61 -597 468 c-329 257 -605 473 -614 480 -15 13 -376 124 -403 124 -7
0 -57 -72 -111 -160z"/>
<path d="M2100 13194 l-565 -275 -200 -346 c-110 -191 -212 -368 -227 -394
l-27 -46 186 -143 c132 -101 190 -140 199 -134 15 10 1398 1503 1401 1513 4 8
-171 101 -188 100 -8 0 -268 -124 -579 -275z"/>
<path d="M4344 13330 l-151 -50 -349 -452 c-192 -249 -379 -492 -416 -540
l-68 -87 43 -26 44 -25 751 0 c414 0 752 2 752 6 0 3 -77 226 -171 497 -94
271 -189 545 -211 610 -30 87 -44 117 -56 116 -10 0 -85 -22 -168 -49z"/>
<path d="M8173 13012 l-433 -217 0 -622 0 -623 373 0 373 0 187 276 187 277
-122 563 c-68 310 -125 564 -128 563 -3 0 -200 -98 -437 -217z"/>
<path d="M26357 12942 c-200 -119 -296 -181 -292 -190 3 -8 69 -121 147 -252
116 -195 144 -237 158 -230 10 5 66 163 153 426 76 229 136 418 134 420 -1 2
-136 -77 -300 -174z"/>
<path d="M32903 12623 c-99 -115 -179 -210 -178 -211 2 -2 22 -1 45 3 38 6 50
18 196 197 126 154 153 192 143 204 -6 8 -14 14 -18 14 -4 0 -88 -93 -188
-207z"/>
<path d="M10672 12628 l-163 -121 3 -61 3 -61 230 -127 c127 -70 233 -127 237
-128 7 0 298 478 298 490 0 3 -96 33 -212 65 -117 32 -217 59 -223 61 -5 2
-83 -51 -173 -118z"/>
<path d="M34928 12269 l-217 -372 17 -29 c13 -23 23 -28 57 -29 22 0 323 -12
669 -27 l629 -27 84 103 85 103 -32 72 c-18 40 -55 116 -81 169 l-49 97 -462
152 c-255 83 -468 153 -473 156 -6 2 -108 -164 -227 -368z"/>
<path d="M35902 12539 c-29 -45 -52 -83 -50 -85 9 -9 201 -74 205 -70 6 6 -89
236 -96 236 -4 0 -30 -37 -59 -81z"/>
<path d="M10372 12044 c-68 -168 -122 -308 -120 -310 10 -9 1272 -603 1275
-600 4 4 152 560 150 562 -7 5 -1178 654 -1180 654 -1 0 -57 -138 -125 -306z"/>
<path d="M33823 12024 l-573 -284 0 -216 c0 -172 3 -214 13 -207 6 6 246 194
532 419 286 224 550 432 587 461 l67 53 -17 30 c-9 16 -21 29 -27 29 -5 0
-268 -129 -582 -285z"/>
<path d="M11980 11955 l-264 -264 -78 -293 -77 -293 51 -270 51 -270 170 -195
c94 -107 171 -196 173 -198 7 -11 292 -111 322 -114 l36 -3 205 823 206 822
-260 260 c-143 143 -262 260 -265 260 -3 0 -124 -119 -270 -265z"/>
<path d="M25935 11995 c-203 -118 -371 -219 -373 -223 -4 -14 268 -266 277
-256 10 10 470 694 468 694 -1 0 -168 -97 -372 -215z"/>
<path d="M5711 12026 l-394 -141 -212 -515 -213 -515 60 -30 c38 -19 61 -26
66 -19 4 6 264 282 577 614 314 331 571 606 573 610 5 12 -44 134 -54 136 -5
1 -186 -62 -403 -140z"/>
<path d="M4477 11629 l-348 -479 28 -41 c25 -36 59 -56 300 -178 l271 -137 58
29 c33 16 60 31 62 32 4 4 431 1039 429 1041 -1 0 -70 49 -154 107 l-152 107
-73 0 -73 -1 -348 -480z"/>
<path d="M24518 11856 l-187 -243 152 -392 c137 -353 154 -391 172 -387 11 3
268 101 570 217 457 175 557 217 592 248 l43 36 -23 67 c-22 66 -24 68 -252
284 -126 119 -250 236 -275 259 l-45 43 -273 56 c-151 31 -277 56 -280 55 -4
0 -91 -109 -194 -243z"/>
<path d="M8821 11978 c-35 -51 -117 -172 -183 -269 l-119 -177 66 -206 66
-206 609 0 608 0 12 73 c6 39 18 108 25 152 10 61 11 83 2 92 -12 11 -1012
633 -1019 633 -2 0 -33 -42 -67 -92z"/>
<path d="M14611 11689 c-133 -176 -240 -323 -237 -326 2 -3 72 -22 154 -43
l150 -37 121 251 121 251 -26 105 c-15 58 -30 108 -34 113 -3 4 -116 -137
-249 -314z"/>
<path d="M24319 11727 c-75 -67 -136 -123 -135 -124 4 -4 100 29 112 38 10 8
167 209 162 208 -2 0 -64 -55 -139 -122z"/>
<path d="M15380 11789 c-201 -15 -378 -28 -395 -28 -29 -1 -33 -8 -152 -252
l-122 -250 135 -364 c75 -200 141 -371 147 -379 11 -14 99 36 701 402 379 229
688 421 687 425 0 4 -114 113 -253 242 l-253 235 -65 -1 c-36 -1 -229 -14
-430 -30z"/>
<path d="M34577 11446 c-92 -196 -167 -360 -167 -364 0 -4 272 -119 605 -255
l604 -249 34 39 c19 21 127 145 241 277 187 217 206 242 206 275 -1 66 -29
573 -32 576 -2 1 -248 12 -548 24 -300 12 -597 24 -660 28 l-116 6 -167 -357z"/>
<path d="M10091 11566 l-135 -135 -26 -166 -27 -167 18 -110 c17 -106 20 -113
94 -239 68 -113 81 -129 104 -129 14 0 310 -9 656 -20 347 -11 679 -20 739
-20 l108 0 -5 28 c-3 15 -25 129 -49 253 l-43 226 -635 301 c-349 165 -642
304 -650 307 -10 3 -60 -40 -149 -129z"/>
<path d="M23880 11475 c-80 -80 -141 -145 -135 -145 5 0 87 53 182 117 l173
117 -27 28 c-15 15 -32 28 -38 28 -5 0 -75 -65 -155 -145z"/>
<path d="M15730 10893 c-382 -232 -698 -423 -702 -425 -4 -2 -1 -47 7 -100
l15 -97 106 -135 c148 -187 129 -182 357 -91 l180 72 448 519 448 519 1 67 0
67 -32 5 c-18 3 -55 9 -83 14 l-50 8 -695 -423z"/>
<path d="M25832 11262 c-40 -34 -69 -92 -353 -691 -170 -360 -308 -655 -306
-656 1 -1 171 -55 377 -121 l375 -120 331 290 330 289 18 186 18 186 -79 148
-79 148 -285 189 c-156 105 -288 190 -294 190 -5 0 -29 -17 -53 -38z"/>
<path d="M18285 11077 c-258 -66 -471 -121 -471 -121 -1 -1 -5 -154 -9 -342
l-7 -341 166 -117 c91 -64 170 -116 176 -116 6 0 155 100 331 223 l321 222 -6
160 c-3 88 -9 249 -12 358 -4 108 -10 197 -13 196 -3 0 -217 -55 -476 -122z"/>
<path d="M25315 11044 c-220 -85 -462 -178 -538 -206 l-138 -53 -208 -306
-207 -306 31 -93 31 -93 150 -43 c82 -24 152 -44 156 -44 3 0 250 268 548 596
480 530 590 659 590 699 0 9 -8 6 -415 -151z"/>
<path d="M2601 11112 l-33 -28 297 -594 c163 -327 298 -596 300 -598 1 -2 68
30 149 70 l146 73 0 341 0 341 -404 211 c-222 117 -408 212 -413 212 -5 0 -24
-12 -42 -28z"/>
<path d="M3833 10872 l-333 -157 0 -337 c0 -319 1 -338 18 -338 10 0 211 -18
446 -40 236 -22 430 -39 432 -38 7 8 306 799 303 802 -5 5 -528 266 -531 266
-2 -1 -153 -72 -335 -158z"/>
<path d="M34422 10604 c-145 -173 -265 -320 -268 -327 -5 -14 -36 10 478 -380
229 -174 425 -317 435 -316 10 0 88 24 173 52 l155 52 102 420 c56 231 102
425 103 430 0 8 -721 311 -908 383 -4 1 -125 -140 -270 -314z"/>
<path d="M14835 10624 c-22 -37 -41 -71 -43 -76 -2 -4 29 -8 68 -8 72 0 72 0
66 25 -4 14 -16 48 -29 76 l-22 51 -40 -68z"/>
<path d="M28825 10363 c-87 -153 -160 -281 -162 -285 -2 -4 20 3 50 17 52 23
779 384 785 390 2 2 -15 30 -38 63 l-42 59 -191 16 c-106 10 -204 17 -218 17
-24 0 -41 -25 -184 -277z"/>
<path d="M5695 10539 c-60 -22 -111 -42 -113 -44 -5 -4 38 -137 47 -147 4 -5
36 31 71 80 35 48 75 102 88 120 14 17 23 32 21 31 -2 0 -53 -18 -114 -40z"/>
<path d="M10097 10558 c-3 -13 -9 -58 -12 -100 l-7 -78 193 -247 c106 -137
237 -303 290 -371 l97 -122 277 450 c152 248 276 453 274 454 -3 3 -1039 37
-1090 36 -9 0 -19 -10 -22 -22z"/>
<path d="M33603 10452 c-106 -14 -193 -30 -193 -34 0 -9 768 -1679 775 -1687
11 -11 449 -121 455 -114 4 4 94 215 199 468 179 432 189 461 173 476 -21 20
-1212 919 -1215 918 -1 -1 -89 -13 -194 -27z"/>
<path d="M15973 10186 l-603 -242 188 -150 187 -151 558 -108 c311 -59 562
-103 567 -99 4 5 24 69 43 143 l35 134 -172 356 c-101 210 -178 357 -186 358
-8 1 -286 -108 -617 -241z"/>
<path d="M28087 10148 c-43 -72 -76 -132 -74 -135 3 -3 213 74 225 82 4 3 -61
185 -67 185 -3 0 -41 -60 -84 -132z"/>
<path d="M17386 9975 c-213 -145 -390 -266 -393 -269 -7 -7 -73 -259 -69 -263
1 -2 227 -75 502 -163 274 -88 531 -171 571 -184 l72 -24 198 133 198 134 36
178 c26 129 33 181 25 190 -6 6 -166 120 -356 253 -190 134 -356 251 -370 260
l-26 18 -388 -263z"/>
<path d="M22 9813 l3 -388 280 -182 c264 -172 281 -182 297 -165 9 9 158 192
331 407 l315 389 -157 163 -156 163 -458 0 -457 0 2 -387z"/>
<path d="M27670 9834 c-316 -122 -579 -225 -585 -227 -5 -2 131 -75 303 -161
276 -138 315 -155 335 -145 44 23 692 382 696 386 3 2 -5 51 -17 109 -20 97
-26 111 -79 184 -32 44 -62 79 -68 79 -5 -1 -269 -102 -585 -225z"/>
<path d="M15241 9897 c-91 -280 -192 -609 -189 -615 3 -8 598 368 598 378 0
11 -331 275 -359 287 l-30 12 -20 -62z"/>
<path d="M18710 9804 l-134 -105 -33 -167 c-18 -92 -33 -174 -33 -183 0 -24
989 -972 1003 -961 7 5 76 59 155 121 l142 112 0 595 0 594 -27 50 -28 50
-455 0 -455 0 -135 -106z"/>
<path d="M24367 9842 l-99 -46 6 -71 c3 -38 15 -331 26 -650 12 -319 23 -589
25 -600 4 -18 336 -407 353 -412 7 -3 455 708 460 731 3 13 -335 986 -347 999
-6 6 -315 98 -323 96 -2 0 -47 -22 -101 -47z"/>
<path d="M30032 9607 l-121 -122 -76 -283 c-42 -156 -74 -286 -72 -288 3 -4
496 375 576 443 6 4 -28 75 -113 236 l-72 137 -122 -123z"/>
<path d="M7090 9625 c-124 -24 -441 -85 -704 -135 l-479 -91 -207 -202 -207
-202 20 -55 19 -55 346 -250 c190 -138 369 -267 398 -287 l51 -37 504 666
c277 366 508 672 512 679 11 19 7 19 -253 -31z"/>
<path d="M28073 9452 l-353 -197 0 -97 c0 -54 2 -98 6 -98 3 0 191 97 419 217
l413 216 -56 78 c-32 43 -61 78 -67 78 -5 0 -169 -89 -362 -197z"/>
<path d="M35235 9593 l-170 -55 -197 -477 -197 -476 60 -185 c51 -159 64 -189
92 -212 18 -15 40 -28 49 -28 21 0 1610 328 1616 334 2 3 -21 145 -53 317 -52
285 -60 319 -95 389 -21 42 -44 81 -52 87 -13 11 -794 332 -873 359 -5 1 -86
-22 -180 -53z"/>
<path d="M15750 9045 l0 -555 248 0 247 1 259 252 258 252 43 195 c23 107 41
196 40 197 -1 3 -1075 213 -1087 213 -4 0 -8 -250 -8 -555z"/>
<path d="M26990 9366 l0 -224 103 54 c56 30 155 82 220 116 64 34 114 65 110
69 -18 16 -401 209 -416 209 -15 0 -17 -22 -17 -224z"/>
<path d="M4457 9515 l-27 -55 24 0 c39 0 57 30 45 73 -5 20 -11 37 -12 37 -2
0 -15 -25 -30 -55z"/>
<path d="M28600 9343 l0 -138 135 135 c74 74 135 136 135 137 0 2 -61 3 -135
3 l-135 0 0 -137z"/>
<path d="M43184 8833 c-240 -346 -449 -644 -463 -663 l-26 -35 27 20 c14 11
247 227 517 480 l491 460 0 162 0 162 -46 21 c-26 11 -50 20 -54 20 -4 0 -205
-282 -446 -627z"/>
<path d="M4142 9350 c-145 -32 -268 -62 -273 -67 -11 -11 -389 -627 -386 -629
116 -84 271 -184 277 -177 9 10 653 903 664 921 10 17 12 17 -282 -48z"/>
<path d="M36960 9243 c-294 -69 -536 -127 -538 -128 -2 -2 23 -144 55 -317
l59 -314 136 -174 c76 -96 148 -187 160 -202 l23 -27 435 409 c239 226 434
414 433 419 -6 25 -212 456 -220 458 -4 1 -249 -55 -543 -124z"/>
<path d="M18285 9172 c-105 -71 -191 -136 -193 -145 -2 -11 550 -765 608 -830
4 -4 102 -25 219 -47 l213 -38 166 100 c166 100 184 113 179 134 -3 14 -976
948 -991 952 -7 1 -97 -55 -201 -126z"/>
<path d="M31214 9188 c-17 -18 -118 -136 -224 -263 -106 -126 -200 -238 -209
-248 -14 -17 -9 -31 69 -182 l85 -164 75 -13 75 -14 225 166 c124 91 305 224
402 295 98 72 178 133 178 136 0 5 -632 319 -643 319 -2 0 -17 -15 -33 -32z"/>
<path d="M4880 8694 c-146 -186 -280 -356 -298 -380 l-34 -43 113 -203 c62
-112 118 -211 124 -221 11 -16 44 7 326 221 l313 238 37 283 36 283 -21 53
-21 54 -110 20 c-61 12 -131 23 -155 27 l-45 5 -265 -337z"/>
<path d="M17992 8724 c-44 -137 -86 -268 -93 -292 l-13 -43 100 -100 99 -99
287 0 288 0 -286 383 c-158 210 -290 386 -295 391 -4 4 -43 -104 -87 -240z"/>
<path d="M21762 8673 c-105 -131 -188 -241 -184 -245 4 -4 21 -9 38 -10 27 -3
61 22 287 212 l255 215 -96 33 c-53 17 -99 32 -102 32 -4 0 -93 -107 -198
-237z"/>
<path d="M38406 8675 l-449 -183 -368 -368 -369 -369 28 -26 c15 -14 212 -178
437 -364 226 -186 417 -344 426 -352 13 -11 41 0 195 75 l179 89 313 632 c172
348 312 638 310 645 -4 18 -242 406 -248 405 -3 -1 -207 -83 -454 -184z"/>
<path d="M34332 8543 c-32 -49 -215 -321 -407 -607 l-348 -518 79 52 c342 230
1071 725 1081 734 10 9 1 48 -45 186 l-59 175 -114 32 c-63 18 -117 33 -121
33 -4 0 -34 -39 -66 -87z"/>
<path d="M19671 8467 c-85 -67 -157 -131 -161 -142 -5 -15 58 -153 236 -520
l244 -500 310 -234 311 -235 117 48 c64 26 145 66 180 88 l62 40 0 673 0 673
-157 116 -158 116 -415 -1 -415 0 -154 -122z"/>
<path d="M2650 8158 c-129 -93 -242 -173 -250 -178 -12 -7 -4 -29 49 -132 35
-68 67 -126 70 -130 6 -6 360 48 368 56 2 2 2 127 1 278 l-3 275 -235 -169z"/>
<path d="M19309 8177 l-167 -101 -173 -270 c-96 -148 -175 -275 -177 -282 -4
-15 309 -614 320 -614 6 0 789 368 823 387 11 7 -34 108 -221 493 -130 267
-237 486 -237 487 -1 1 -77 -44 -168 -100z"/>
<path d="M4150 8240 c-80 -4 -179 -8 -221 -9 l-76 -1 -13 -44 c-12 -42 -9 -52
71 -305 l84 -261 381 0 382 0 17 64 18 65 -139 250 -139 251 -110 -2 c-60 -1
-175 -5 -255 -8z"/>
<path d="M34952 8131 l-24 -6 22 -20 c18 -16 23 -17 30 -5 12 18 13 40 3 39
-5 -1 -19 -4 -31 -8z"/>
<path d="M34860 7601 c0 -287 3 -521 6 -521 3 0 161 66 350 146 l344 147 0 71
0 71 -340 300 c-187 165 -344 301 -350 303 -7 3 -10 -172 -10 -517z"/>
<path d="M3417 7911 c-207 -109 -380 -200 -383 -204 -3 -3 102 -229 233 -503
l238 -497 64 -48 c35 -27 67 -49 70 -49 4 0 78 221 165 492 152 474 158 493
146 532 -20 68 -151 476 -153 476 -1 0 -172 -90 -380 -199z"/>
<path d="M2025 7891 c-131 -98 -241 -183 -242 -188 -3 -8 130 -308 141 -320 1
-2 95 28 209 65 l207 67 73 89 74 88 -101 189 c-55 104 -105 189 -111 188 -5
0 -118 -81 -250 -178z"/>
<path d="M8075 7835 l-320 -235 -114 -222 -115 -222 37 -148 37 -148 171 -258
c95 -141 173 -258 174 -260 1 -1 104 44 228 100 l226 103 1 763 c0 419 -1 762
-3 762 -1 0 -146 -106 -322 -235z"/>
<path d="M14300 7896 c-140 -80 -260 -149 -265 -154 -11 -9 -61 -421 -54 -440
2 -5 157 96 344 225 187 128 347 238 355 243 13 7 4 30 -50 139 -35 72 -67
131 -70 131 -3 0 -120 -65 -260 -144z"/>
<path d="M24145 7853 l-510 -165 -167 -278 c-93 -153 -168 -282 -168 -287 0
-5 31 -31 69 -57 l69 -48 658 164 658 164 69 172 69 172 -108 165 c-59 91
-112 165 -118 165 -6 -1 -240 -76 -521 -167z"/>
<path d="M4953 7794 l-122 -65 -21 -70 c-12 -39 -20 -72 -18 -74 2 -1 68 60
148 136 80 76 143 139 140 139 -3 0 -60 -30 -127 -66z"/>
<path d="M39173 7431 c-139 -124 -258 -232 -265 -238 -10 -10 19 -13 143 -13
l154 0 112 237 c62 130 112 237 110 238 -1 1 -115 -100 -254 -224z"/>
<path d="M33718 7462 l-217 -147 -1 -58 0 -59 167 154 c223 204 279 257 273
257 -3 0 -103 -66 -222 -147z"/>
<path d="M4017 7515 l-59 -66 -139 -430 c-76 -237 -139 -437 -139 -445 0 -8
25 -64 55 -125 44 -86 59 -109 73 -105 9 3 136 23 282 46 l265 41 328 162
c217 107 327 167 327 177 -1 8 -58 193 -129 410 l-128 395 -339 3 -339 2 -58
-65z"/>
<path d="M2120 7404 l-196 -64 -204 -302 c-113 -167 -204 -305 -203 -308 9
-26 230 -380 237 -380 14 0 917 503 914 510 -2 3 -75 142 -163 308 -104 195
-165 301 -175 301 -8 -1 -103 -30 -210 -65z"/>
<path d="M18029 7243 c-36 -38 -152 -161 -258 -276 l-193 -207 67 -32 67 -31
121 48 c67 26 123 49 124 50 3 1 141 515 139 515 -1 0 -31 -30 -67 -67z"/>
<path d="M29832 7150 l-201 -141 46 -132 c25 -73 48 -138 52 -144 4 -8 97 60
274 203 147 119 267 219 267 224 0 9 -212 130 -228 130 -5 0 -99 -63 -210
-140z"/>
<path d="M19602 6579 c-288 -308 -522 -562 -520 -564 1 -2 173 -75 381 -163
l379 -161 142 95 142 95 228 465 c125 256 226 467 224 468 -66 54 -437 326
-444 326 -5 0 -245 -252 -532 -561z"/>
<path d="M3113 6979 c-79 -84 -143 -156 -143 -159 0 -6 473 -99 478 -95 2 2
-41 94 -95 205 l-98 203 -142 -154z"/>
<path d="M14900 6854 c-184 -124 -341 -228 -348 -233 -10 -6 -7 -25 14 -91 22
-71 35 -94 87 -152 34 -37 68 -68 76 -68 8 0 43 5 78 11 l64 11 91 182 c91
182 278 567 275 565 -1 0 -153 -101 -337 -225z"/>
<path d="M16529 6684 l-474 -376 -3 -74 -3 -74 258 0 258 1 261 392 261 393
-39 54 c-21 30 -40 55 -42 57 -1 2 -216 -166 -477 -373z"/>
<path d="M13790 6965 c-95 -51 -142 -82 -157 -105 -13 -18 -21 -35 -19 -39 1
-3 43 -90 91 -193 l88 -188 379 0 c208 0 378 3 377 8 0 4 -28 92 -62 196 l-62
189 -210 87 c-116 47 -228 93 -250 101 l-40 16 -135 -72z"/>
<path d="M20927 6947 c-26 -18 -46 -37 -45 -43 5 -21 922 -1584 930 -1584 6 0
365 215 377 226 3 2 46 221 97 485 l92 482 -41 233 -42 234 -660 -1 -660 0
-48 -32z"/>
<path d="M20726 6847 l-108 -43 -93 -190 c-51 -104 -153 -314 -228 -466 l-135
-277 714 -380 c393 -210 717 -381 722 -381 4 0 47 40 96 89 l88 88 -466 799
c-257 439 -470 800 -474 801 -4 1 -56 -17 -116 -40z"/>
<path d="M15649 6518 l-357 -313 292 -97 291 -98 68 68 67 67 -2 343 -3 343
-356 -313z"/>
<path d="M40281 6626 l-124 -62 114 -41 c63 -23 122 -44 132 -48 16 -7 17 2
17 104 0 61 -3 111 -7 110 -5 0 -64 -28 -132 -63z"/>
<path d="M39680 6661 c-6 -13 -10 -188 -10 -500 0 -477 0 -481 20 -481 20 0
827 155 862 166 20 6 243 259 243 276 0 6 -83 78 -185 158 l-186 147 -351 127
c-194 69 -359 126 -367 126 -9 0 -20 -9 -26 -19z"/>
<path d="M39297 6446 c-180 -96 -330 -176 -333 -178 -2 -3 14 -245 36 -539 22
-294 40 -547 40 -562 0 -16 4 -27 9 -25 5 2 140 119 300 261 l291 258 0 480
c0 263 -3 479 -7 479 -5 -1 -156 -79 -336 -174z"/>
<path d="M4083 6351 l-283 -46 0 -348 0 -349 196 -296 c107 -164 201 -297 208
-297 8 0 204 90 435 200 283 133 420 203 417 212 -5 12 -673 953 -685 964 -3
3 -133 -15 -288 -40z"/>
<path d="M3445 6199 l-300 -99 -267 -374 c-148 -206 -268 -379 -268 -384 0 -7
318 -240 375 -274 7 -4 167 104 391 265 l379 273 3 347 c1 191 -1 347 -5 346
-5 0 -143 -45 -308 -100z"/>
<path d="M14781 6277 l-54 -12 -90 -210 -90 -210 27 -325 c16 -179 29 -327 31
-329 10 -10 1180 -230 1187 -223 8 8 73 1000 67 1007 -14 12 -972 315 -995
314 -16 0 -53 -6 -83 -12z"/>
<path d="M7974 6108 l-39 -41 50 28 c28 15 51 29 53 30 1 1 -4 7 -11 13 -10 9
-22 2 -53 -30z"/>
<path d="M15968 6053 l-67 -68 -25 -425 c-14 -234 -28 -458 -32 -497 l-6 -73
509 0 508 1 234 347 c129 191 236 352 237 357 2 6 -166 103 -372 218 l-375
207 -272 0 -273 0 -66 -67z"/>
<path d="M25961 5957 c-195 -137 -194 -135 -34 -122 l82 7 62 111 c34 62 64
115 66 120 2 4 3 7 1 7 -2 0 -81 -55 -177 -123z"/>
<path d="M17329 5861 l-74 -68 35 -22 c19 -11 39 -20 44 -18 7 2 78 177 72
177 -1 0 -36 -31 -77 -69z"/>
<path d="M23765 5324 c-159 -200 -296 -373 -302 -382 -11 -16 7 -28 185 -121
255 -133 262 -135 402 -73 76 33 125 62 176 106 l71 61 87 282 c47 155 86 288
86 295 0 14 -381 199 -405 198 -5 -1 -140 -165 -300 -366z"/>
<path d="M17298 5578 c-36 -51 -143 -209 -238 -350 l-174 -258 58 -84 58 -85
332 291 c445 391 440 387 435 391 -4 4 -369 173 -395 184 -7 2 -41 -38 -76
-89z"/>
<path d="M35397 5083 c-131 -295 -236 -537 -235 -538 2 -2 112 43 244 99 l241
101 187 169 c103 93 185 173 184 177 -2 6 -308 428 -373 515 -7 10 -74 -131
-248 -523z"/>
<path d="M43185 5592 l-310 -3 -240 -321 c-333 -446 -305 -406 -275 -387 14 9
279 173 590 364 311 191 567 349 569 351 2 2 -2 3 -10 2 -8 -2 -153 -4 -324
-6z"/>
<path d="M3394 5297 l-379 -273 -11 -70 -12 -69 191 -265 c104 -146 191 -267
193 -269 3 -3 804 358 818 370 4 4 1 62 -8 130 l-16 122 -196 299 c-108 164
-197 298 -198 298 -2 0 -173 -123 -382 -273z"/>
<path d="M22011 5395 c-161 -99 -197 -126 -288 -217 l-103 -103 -32 -200 -31
-200 43 -243 43 -243 135 -80 136 -80 810 290 c446 160 825 295 843 301 17 7
42 27 55 48 14 20 32 49 42 63 l16 26 -192 100 c-710 369 -1267 653 -1279 652
-8 -1 -97 -52 -198 -114z"/>
<path d="M21195 4942 l-165 -247 241 -3 c133 -1 244 0 246 2 5 5 65 378 61
381 -2 1 -51 27 -111 58 l-107 57 -165 -248z"/>
<path d="M15145 4570 c-237 -208 -429 -385 -429 -393 2 -23 343 -485 362 -491
40 -12 293 -59 296 -55 1 2 82 191 180 420 l176 415 21 223 c11 123 18 226 15
229 -8 7 -136 31 -166 31 -18 0 -139 -100 -455 -379z"/>
<path d="M15822 4938 c-12 -15 -54 -461 -44 -466 4 -2 329 -144 722 -317 l715
-313 113 111 c61 62 112 116 111 122 0 5 -132 204 -293 440 l-292 430 -511 3
c-401 2 -513 -1 -521 -10z"/>
<path d="M24253 4826 l-61 -53 65 -197 c36 -109 67 -195 70 -193 30 30 250
344 245 349 -8 8 -249 148 -254 148 -2 0 -31 -25 -65 -54z"/>
<path d="M4065 4615 l-140 -64 -263 -347 c-144 -191 -261 -355 -260 -363 3
-14 27 -16 167 -19 l163 -3 374 247 c206 136 374 253 374 260 0 19 -254 354
-268 354 -4 0 -70 -29 -147 -65z"/>
<path d="M22897 4340 c-522 -186 -951 -341 -953 -343 -3 -3 95 -206 218 -451
l223 -446 266 0 266 0 235 135 235 136 267 646 c147 355 266 647 264 648 -2 1
-19 5 -38 8 -29 5 -198 -52 -983 -333z"/>
<path d="M8385 4613 l-190 -55 -272 -205 c-150 -113 -273 -209 -273 -214 0 -4
20 -42 45 -83 42 -69 49 -76 98 -92 29 -9 87 -30 129 -45 l78 -28 217 287
c119 158 252 333 295 390 44 56 76 102 71 101 -4 -1 -93 -26 -198 -56z"/>
<path d="M20728 4185 c156 -313 241 -474 250 -470 6 2 149 108 317 236 238
180 305 235 305 252 -1 12 -18 117 -38 232 l-38 210 -119 6 c-66 4 -299 7
-517 8 l-398 1 238 -475z"/>
<path d="M15739 4384 c-11 -27 -91 -213 -176 -413 l-156 -363 68 -138 69 -138
75 -6 c131 -10 1312 -68 1316 -64 2 1 61 125 132 274 l130 271 -701 306 c-386
169 -709 309 -718 313 -14 5 -22 -4 -39 -42z"/>
<path d="M20285 4219 c-148 -116 -271 -214 -273 -219 -2 -5 92 -132 209 -282
280 -358 311 -398 320 -398 3 0 94 80 201 178 l195 178 -189 377 c-103 207
-189 377 -191 376 -1 0 -123 -95 -272 -210z"/>
<path d="M3202 4255 l-81 -146 82 3 81 3 32 100 c30 95 31 101 15 128 -41 71
-41 71 -129 -88z"/>
<path d="M4133 4035 l-363 -241 141 -160 c78 -87 143 -161 145 -163 3 -3 57
47 122 110 64 63 193 188 285 277 l169 162 -67 128 c-37 70 -68 128 -69 128 0
1 -164 -107 -363 -241z"/>
<path d="M21304 3909 c-231 -174 -376 -293 -526 -430 -115 -104 -208 -193
-208 -197 1 -4 206 -145 457 -315 l455 -307 281 2 281 3 154 208 154 209 -228
456 -229 457 -130 77 c-71 43 -133 78 -136 78 -4 0 -150 -108 -325 -241z"/>
<path d="M14585 3998 c-49 -79 -111 -178 -137 -221 l-49 -78 116 -56 116 -55
195 47 195 47 -24 31 c-13 18 -90 121 -171 230 -81 108 -149 197 -150 197 -1
0 -42 -64 -91 -142z"/>
<path d="M3179 4072 l-87 -3 -169 -377 c-93 -207 -166 -378 -162 -380 10 -4
480 145 490 155 4 5 33 82 65 172 l58 163 -45 136 c-25 75 -49 136 -54 137 -6
0 -49 -1 -96 -3z"/>
<path d="M7205 3400 c-275 -282 -501 -515 -503 -519 -3 -9 350 -206 368 -205
9 0 167 132 351 292 l335 293 -18 242 c-10 133 -21 280 -25 326 l-8 84 -500
-513z"/>
<path d="M3405 3768 c-3 -7 -29 -80 -59 -163 l-54 -150 42 -45 c23 -25 131
-139 241 -253 l198 -208 179 178 c98 98 178 182 177 188 0 5 -89 111 -198 235
l-197 225 -162 3 c-125 2 -164 0 -167 -10z"/>
<path d="M26040 3503 l-315 -214 -516 -491 -517 -492 -47 -119 -48 -119 7
-237 c4 -130 9 -237 10 -239 2 -1 214 75 472 171 l469 173 681 860 680 860
-265 28 c-146 15 -273 29 -281 31 -8 1 -157 -94 -330 -212z"/>
<path d="M15550 3287 c0 -2 -27 -173 -60 -380 l-59 -376 131 -210 131 -211 28
25 c127 106 1209 1071 1209 1077 0 4 -13 8 -30 8 -42 0 -1156 58 -1262 66 -49
3 -88 4 -88 1z"/>
<path d="M15211 2873 l-293 -398 85 -3 c86 -3 159 9 306 48 65 18 82 26 86 44
6 26 112 706 110 706 -1 0 -133 -179 -294 -397z"/>
<path d="M20346 3013 l-189 -236 118 -601 c64 -331 119 -611 122 -624 6 -24
353 -317 376 -317 9 0 681 1396 674 1401 -15 12 -895 607 -902 610 -5 2 -95
-103 -199 -233z"/>
<path d="M4806 3045 c-267 -147 -288 -161 -484 -317 l-204 -163 -110 -219
c-90 -180 -107 -221 -96 -231 7 -7 72 -51 145 -98 l132 -86 487 625 c267 344
484 627 482 629 -1 2 -19 6 -38 8 -31 5 -68 -13 -314 -148z"/>
<path d="M16959 3059 c-21 -42 -18 -43 33 -5 21 15 25 23 17 33 -18 21 -27 16
-50 -28z"/>
<path d="M22230 2849 c-85 -116 -154 -214 -154 -218 36 -170 310 -1300 317
-1308 7 -6 280 -167 607 -358 327 -191 610 -356 629 -368 19 -11 32 -17 29
-11 -2 5 -173 564 -379 1241 l-374 1233 -260 0 -260 0 -155 -211z"/>
<path d="M17220 2780 l0 -110 53 24 c28 12 92 43 140 68 l89 44 -134 42 c-74
23 -137 42 -141 42 -4 0 -7 -49 -7 -110z"/>
<path d="M7979 2694 c-38 -82 -80 -170 -91 -196 l-20 -48 41 -70 c23 -38 44
-70 46 -70 2 0 76 96 166 213 89 116 166 217 171 224 6 8 -24 22 -104 49 -62
20 -119 39 -125 41 -8 3 -39 -50 -84 -143z"/>
<path d="M21159 1933 c-179 -379 -321 -689 -315 -691 19 -4 1487 85 1493 91 5
5 -85 394 -259 1120 l-40 167 -277 0 -277 0 -325 -687z"/>
<path d="M9511 2489 c-118 -21 -220 -40 -225 -43 -6 -2 -240 -159 -519 -349
l-508 -345 -215 -317 c-123 -182 -211 -321 -207 -328 13 -22 655 -887 658
-887 2 0 262 198 577 440 424 326 574 446 576 463 3 34 92 1362 92 1386 0 12
-3 21 -7 20 -5 0 -104 -18 -222 -40z"/>
<path d="M16675 1768 c-402 -129 -541 -178 -574 -202 -25 -17 -49 -34 -53 -37
-7 -4 -140 -1050 -135 -1055 3 -2 1609 680 1623 688 6 4 82 113 170 243 l158
235 -45 46 c-43 42 -61 51 -295 135 -137 49 -265 95 -284 103 -34 13 -52 8
-565 -156z"/>
<path d="M4440 1744 c0 -3 204 -392 453 -865 l452 -859 123 2 124 3 82 160 83
160 -156 702 -156 703 -502 0 c-277 0 -503 -3 -503 -6z"/>
<path d="M17014 897 l-1111 -470 -76 -186 c-42 -102 -79 -194 -83 -204 -6 -16
67 -17 1440 -17 795 0 1446 2 1446 5 0 52 -72 1210 -75 1214 -9 8 -399 131
-415 130 -8 0 -515 -213 -1126 -472z"/>
<path d="M10959 664 l-644 -644 968 0 c532 0 967 3 967 8 0 4 -73 226 -162
494 l-163 487 -161 150 -161 149 -644 -644z"/>
<path d="M15319 649 c-349 -309 -650 -577 -669 -595 l-35 -34 540 0 540 0 87
214 87 213 46 378 c25 208 44 379 42 382 -3 2 -290 -249 -638 -558z"/>
<path d="M13623 918 l-353 -121 0 -388 0 -389 248 0 248 0 87 338 c63 243 93
379 107 487 11 83 22 160 24 173 2 12 0 22 -3 21 -3 0 -165 -55 -358 -121z"/>
<path d="M7686 490 c-114 -254 -205 -464 -203 -466 2 -2 251 -3 554 -2 l550 3
-321 431 c-176 237 -332 446 -346 464 l-26 33 -208 -463z"/>
<path d="M12758 284 c-305 -152 -468 -239 -468 -249 0 -13 59 -15 470 -15
l470 0 0 250 c0 138 -1 250 -2 249 -2 0 -213 -106 -470 -235z"/>
</g>
</svg>
